<svg width="190" height="276" viewBox="0 0 190 276" fill="none" xmlns="http://www.w3.org/2000/svg">
<g clip-path="url(#clip0_692_3)">
<path d="M49.8511 203.184C45.416 205.16 36.1705 208.949 34.6702 208.302L47.9758 82.5939L48.7901 76.0228C49.3071 71.8502 55.2012 71.5302 56.1621 75.6225L57.7988 82.5939L72.0866 91.2139L54.0482 96.5116L49.8511 203.184Z" fill="white"/>
<path d="M171.417 263.124L169.051 258.496L155.2 265.282C153.082 266.32 150.537 265.859 148.918 264.144L139.256 253.916L133.436 257.228C128.706 259.918 124.96 264.052 122.747 269.027L119.603 276.095L111.379 263.303C109.767 260.796 107.561 258.724 104.957 257.273L90.8846 249.427L83.2117 256.731C76.85 262.788 67.1932 263.756 59.7574 259.081L44.3974 249.427L37.9057 253.274C33.3354 255.984 27.5651 255.57 23.4254 252.241L11.7717 242.865C9.66414 241.17 6.76884 240.841 4.33463 242.019L4.05768 242.154L-0.205139 244.219V219.706L37.5543 213.934C46.7895 212.523 55.7575 209.717 64.1525 205.616L124.269 176.247L138.808 189.581L146.617 196.743C151.076 200.833 156.144 204.204 161.638 206.735L189.603 219.616L177.401 262.536C176.597 265.36 172.752 265.738 171.417 263.124Z" fill="white"/>
<path d="M171.417 263.124L169.051 258.496L155.2 265.282C153.082 266.32 150.537 265.859 148.918 264.144L139.256 253.916L133.436 257.228C128.706 259.918 124.96 264.052 122.747 269.027L119.603 276.095L111.379 263.303C109.767 260.796 107.561 258.724 104.957 257.273L90.8846 249.427L83.2117 256.731C76.85 262.788 67.1932 263.756 59.7574 259.081L44.3974 249.427L37.9057 253.274C33.3354 255.984 27.5651 255.57 23.4254 252.241L11.7717 242.865C9.66414 241.17 6.76884 240.841 4.33463 242.019L4.05768 242.154L-0.205139 244.219V219.706L37.5543 213.934C46.7895 212.523 55.7575 209.717 64.1525 205.616L124.269 176.247L138.808 189.581L146.617 196.743C151.076 200.833 156.144 204.204 161.638 206.735L189.603 219.616L177.401 262.536C176.597 265.36 172.752 265.738 171.417 263.124Z" fill="white"/>
<path d="M109.963 176.967C104.141 179.562 92.005 184.543 90.0358 183.692L107.501 18.471L109.376 3.31831C109.893 -0.85539 115.789 -1.17505 116.749 2.91855L120.395 18.471L139.15 29.8006L115.472 36.7634L109.963 176.967Z" fill="white"/>
<path d="M29.4909 208.392L0.825806 212.612V191.87L7.2725 188.27C12.342 185.438 18.4163 185.073 23.7845 187.28L29.4909 189.626V208.392Z" fill="white"/>
<path d="M189.605 121.025L17.3462 107.107C20.3891 117.441 27.1925 126.243 36.4007 131.759L47.2614 138.265C55.5818 138.265 63.7098 135.747 70.5886 131.041L75.1228 127.939C81.5109 134.716 89.4788 139.784 98.3053 142.686L103.431 144.371L107.625 142.74C111.133 141.375 114.519 139.712 117.746 137.771L124.237 133.865L130.501 138.917C146.464 151.789 169.9 148.573 181.848 131.869L189.605 121.025Z" fill="white"/>
<path d="M62.9781 199.054L58.0667 201.478L87.9819 89.6874L84.7048 85.7003C80.9916 81.1826 78.4222 75.8274 77.2169 70.0931L76.7302 67.7783L113.075 62.0316L140.936 71.0108L138.656 76.5858C136.75 81.2451 133.787 85.3918 130.004 88.6951L125.577 92.5608L145.044 182.801L137.722 176.696L119.147 92.5608L111.719 94.4816C108.387 95.3429 104.897 95.3713 101.552 94.564L93.2506 92.5608L62.9781 199.054Z" fill="white"/>
<path d="M49.8511 203.184C45.416 205.16 36.1705 208.949 34.6702 208.302L47.9758 82.5939L48.7901 76.0228C49.3071 71.8502 55.2012 71.5302 56.1621 75.6225L57.7988 82.5939L72.0866 91.2139L54.0482 96.5116L49.8511 203.184Z" fill="white"/>
<path d="M109.963 176.967C104.141 179.562 92.005 184.543 90.0358 183.692L107.501 18.471L109.376 3.31831C109.893 -0.85539 115.789 -1.17505 116.749 2.91855L120.395 18.471L139.15 29.8006L115.472 36.7634L109.963 176.967Z" fill="white"/>
<path d="M29.4909 208.392L0.825806 212.612V191.87L7.2725 188.27C12.342 185.438 18.4163 185.073 23.7845 187.28L29.4909 189.626V208.392Z" fill="white"/>
<path d="M189.605 121.025L17.3462 107.107C20.3891 117.441 27.1925 126.243 36.4007 131.759L47.2614 138.265C55.5818 138.265 63.7098 135.747 70.5886 131.041L75.1228 127.939C81.5109 134.716 89.4788 139.784 98.3053 142.686L103.431 144.371L107.625 142.74C111.133 141.375 114.519 139.712 117.746 137.771L124.237 133.865L130.501 138.917C146.464 151.789 169.9 148.573 181.848 131.869L189.605 121.025Z" fill="white"/>
<path d="M62.9781 199.054L58.0667 201.478L87.9819 89.6874L84.7048 85.7003C80.9916 81.1826 78.4222 75.8274 77.2169 70.0931L76.7302 67.7783L113.075 62.0316L140.936 71.0108L138.656 76.5858C136.75 81.2451 133.787 85.3918 130.004 88.6951L125.577 92.5608L145.044 182.801L137.722 176.696L119.147 92.5608L111.719 94.4816C108.387 95.3429 104.897 95.3713 101.552 94.564L93.2506 92.5608L62.9781 199.054Z" fill="white"/>
</g>
<defs>
<clipPath id="clip0_692_3">
<rect width="190" height="276" fill="white"/>
</clipPath>
</defs>
</svg>
